# xmcd
#
# Track frame offsets:
#	150
#	13472
#	30905
#	52150
#	70295
#	90160
#	105695
#	124145
#	142120
#	157720
#	171152
#	186000
#	199130
#	211160
#	227145
#	240760
#	251892
#	266850
#
# Disc length: 3847 seconds
#
# Revision: 1
# Processed by: cddbd v1.5PL3 Copyright (c) Steve Scherf et al.
# Submitted via: CDex 1.50Beta5
#
DISCID=f90f0512
DTITLE=Various Artist - ヒットポップス大全集 Disc05
DYEAR=1900
DGENRE=Pop
TTITLE0=尾崎紀世彦/また逢う日まで
TTITLE1=大橋純子/たそがれマイ・ラブ
TTITLE2=大橋純子/シルエット・ロマンス
TTITLE3=石川セリ/ダンスはうまく踊れない
TTITLE4=内藤やす子/六本木ララバイ
TTITLE5=柏原芳恵/春なのに
TTITLE6=森山良子/禁じられた恋
TTITLE7=もんた＆ブラザーズ/ダンシング・オール・ナイト
TTITLE8=もんた＆ブラザーズ/デザイアー
TTITLE9=長谷川きよし/別れのサンバ
TTITLE10=佐々木勉/あなたのすべてを
TTITLE11=パープル・シャドーズ/小さなスナック
TTITLE12=ザ・ブロードサイド・フォー/若者たち
TTITLE13=ザ・サベージ/いつまでもいつまでも
TTITLE14=ザ・テンプターズ/エメラルドの伝説
TTITLE15=ザ・スパイダース/夕陽が泣いている
TTITLE16=ザ・カーナビーツ/好きさ好きさ好きさ
TTITLE17=つのだひろ/メリー・ジェーン
EXTD=
EXTT0=
EXTT1=
EXTT2=
EXTT3=
EXTT4=
EXTT5=
EXTT6=
EXTT7=
EXTT8=
EXTT9=
EXTT10=
EXTT11=
EXTT12=
EXTT13=
EXTT14=
EXTT15=
EXTT16=
EXTT17=
PLAYORDER=
